<?xml version="1.0" standalone="no"?><svg xmlns:xlink="http://www.w3.org/1999/xlink" xmlns="http://www.w3.org/2000/svg" viewBox="0 0 1000 500" preserveAspectRatio="xMaxYMax slice"><g transform="scale(0.8880994671403197)"><rect x="0" y="0" width="1126" height="563" fill="#ffffff"/><rect x="88.47142857142858" y="8.042857142857143" width="64.34285714285714" height="64.34285714285714" fill="#ffffff"/><path d="M 88.47 8.04 A 32.17 32.17 0 0 1  120.64 40.21 L 88.47 8.04 A 32.17 32.17 0 0 0 120.64 40.21" fill="#dcf0ea"/><path d="M 88.47 40.21 A 32.17 32.17 0 0 1  120.64 72.38 L 88.47 40.21 A 32.17 32.17 0 0 0 120.64 72.38" fill="#357663"/><path d="M 168.9 72.38 A 64.34 64.34 0 0 1  233.24 8.04 L 168.9 72.38 A 64.34 64.34 0 0 0 233.24 8.04" fill="#98b9af"/><rect x="329.75714285714287" y="8.042857142857143" width="64.34285714285714" height="64.34285714285714" fill="#ffffff"/><path d="M 329.76 8.04 A 32.17 32.17 0 0 1  361.93 40.21 L 329.76 8.04 A 32.17 32.17 0 0 0 361.93 40.21" fill="#619384"/><path d="M 361.93 40.21 A 32.17 32.17 0 0 1  394.1 8.04 L 361.93 40.21 A 32.17 32.17 0 0 0 394.1 8.04" fill="#eff8f5"/><path d="M 329.76 72.38 A 32.17 32.17 0 0 1  361.93 40.21 L 329.76 72.38 A 32.17 32.17 0 0 0 361.93 40.21" fill="#d0dfda"/><path d="M 490.61 72.38 A 64.34 64.34 0 0 1  554.95 8.04 L 490.61 72.38 A 64.34 64.34 0 0 0 554.95 8.04" fill="#7b8e88"/><path d="M 571.04 8.04 A 64.34 64.34 0 0 1  635.38 72.38 L 571.04 8.04 A 64.34 64.34 0 0 0 635.38 72.38" fill="#b4e0d1"/><path d="M 651.47 72.38 A 64.34 64.34 0 0 1  715.8100000000001 8.04 L 651.47 72.38 A 64.34 64.34 0 0 0 715.8100000000001 8.04" fill="#e0f2ec"/><path d="M 731.9 72.38 A 64.34 64.34 0 0 1  796.24 8.04 L 731.9 72.38 A 64.34 64.34 0 0 0 796.24 8.04" fill="#dfe4e2"/><path d="M 812.33 8.04 A 64.34 64.34 0 0 1  876.6700000000001 72.38 L 812.33 8.04 A 64.34 64.34 0 0 0 876.6700000000001 72.38" fill="#fdfefd"/><path d="M 892.76 8.04 A 64.34 64.34 0 0 1  957.1 72.38 L 892.76 8.04 A 64.34 64.34 0 0 0 957.1 72.38" fill="#b2dfcf"/><path d="M 973.19 8.04 A 64.34 64.34 0 0 1  1037.53 72.38 L 973.19 8.04 A 64.34 64.34 0 0 0 1037.53 72.38" fill="#3a7966"/><path d="M 1053.61 72.38 A 64.34 64.34 0 0 1  1117.9499999999998 8.04 L 1053.61 72.38 A 64.34 64.34 0 0 0 1117.9499999999998 8.04" fill="#556c65"/><path d="M 8.04 88.47 A 64.34 64.34 0 0 1  72.38 152.81 L 8.04 88.47 A 64.34 64.34 0 0 0 72.38 152.81" fill="#cdddd8"/><rect x="249.32857142857142" y="88.47142857142858" width="64.34285714285714" height="64.34285714285714" fill="#ffffff"/><path d="M 249.33 120.64 A 32.17 32.17 0 0 1  281.5 88.47 L 249.33 120.64 A 32.17 32.17 0 0 0 281.5 88.47" fill="#788b85"/><path d="M 249.33 120.64 A 32.17 32.17 0 0 1  281.5 152.81 L 249.33 120.64 A 32.17 32.17 0 0 0 281.5 152.81" fill="#5e746d"/><path d="M 281.5 152.81 A 32.17 32.17 0 0 1  313.67 120.64 L 281.5 152.81 A 32.17 32.17 0 0 0 313.67 120.64" fill="#acdccc"/><rect x="410.1857142857143" y="88.47142857142858" width="64.34285714285714" height="64.34285714285714" fill="#ffffff"/><path d="M 410.19 120.64 A 32.17 32.17 0 0 1  442.36 88.47 L 410.19 120.64 A 32.17 32.17 0 0 0 442.36 88.47" fill="#d5ede5"/><path d="M 442.36 120.64 A 32.17 32.17 0 0 1  474.53000000000003 88.47 L 442.36 120.64 A 32.17 32.17 0 0 0 474.53000000000003 88.47" fill="#586f67"/><path d="M 410.19 120.64 A 32.17 32.17 0 0 1  442.36 152.81 L 410.19 120.64 A 32.17 32.17 0 0 0 442.36 152.81" fill="#798c86"/><path d="M 442.36 152.81 A 32.17 32.17 0 0 1  474.53000000000003 120.64 L 442.36 152.81 A 32.17 32.17 0 0 0 474.53000000000003 120.64" fill="#246a55"/><rect x="731.9" y="88.47142857142858" width="64.34285714285714" height="64.34285714285714" fill="#ffffff"/><path d="M 764.07 152.81 A 32.17 32.17 0 0 1  796.24 120.64 L 764.07 152.81 A 32.17 32.17 0 0 0 796.24 120.64" fill="#96a5a0"/><path d="M 892.76 88.47 A 64.34 64.34 0 0 1  957.1 152.81 L 892.76 88.47 A 64.34 64.34 0 0 0 957.1 152.81" fill="#b7e1d3"/><path d="M 973.19 88.47 A 64.34 64.34 0 0 1  1037.53 152.81 L 973.19 88.47 A 64.34 64.34 0 0 0 1037.53 152.81" fill="#cadbd6"/><rect x="8.042857142857143" y="168.9" width="64.34285714285714" height="64.34285714285714" fill="#ffffff"/><path d="M 8.04 168.9 A 32.17 32.17 0 0 1  40.21 201.07 L 8.04 168.9 A 32.17 32.17 0 0 0 40.21 201.07" fill="#a1bfb6"/><path d="M 40.21 168.9 A 32.17 32.17 0 0 1  72.38 201.07 L 40.21 168.9 A 32.17 32.17 0 0 0 72.38 201.07" fill="#224137"/><path d="M 40.21 201.07 A 32.17 32.17 0 0 1  72.38 233.24 L 40.21 201.07 A 32.17 32.17 0 0 0 72.38 233.24" fill="#e7efed"/><path d="M 168.9 233.24 A 64.34 64.34 0 0 1  233.24 168.9 L 168.9 233.24 A 64.34 64.34 0 0 0 233.24 168.9" fill="#f0f2f1"/><path d="M 249.33 168.9 A 64.34 64.34 0 0 1  313.67 233.24 L 249.33 168.9 A 64.34 64.34 0 0 0 313.67 233.24" fill="#a4c1b9"/><path d="M 329.76 233.24 A 64.34 64.34 0 0 1  394.1 168.9 L 329.76 233.24 A 64.34 64.34 0 0 0 394.1 168.9" fill="#cdeae0"/><rect x="410.1857142857143" y="168.9" width="64.34285714285714" height="64.34285714285714" fill="#ffffff"/><path d="M 442.36 168.9 A 32.17 32.17 0 0 1  474.53000000000003 201.07 L 442.36 168.9 A 32.17 32.17 0 0 0 474.53000000000003 201.07" fill="#29473d"/><path d="M 410.19 233.24 A 32.17 32.17 0 0 1  442.36 201.07 L 410.19 233.24 A 32.17 32.17 0 0 0 442.36 201.07" fill="#ceeae1"/><path d="M 442.36 201.07 A 32.17 32.17 0 0 1  474.53000000000003 233.24 L 442.36 201.07 A 32.17 32.17 0 0 0 474.53000000000003 233.24" fill="#abc6be"/><path d="M 490.61 168.9 A 64.34 64.34 0 0 1  554.95 233.24 L 490.61 168.9 A 64.34 64.34 0 0 0 554.95 233.24" fill="#417e6c"/><path d="M 651.47 168.9 A 64.34 64.34 0 0 1  715.8100000000001 233.24 L 651.47 168.9 A 64.34 64.34 0 0 0 715.8100000000001 233.24" fill="#b4e0d1"/><path d="M 731.9 168.9 A 64.34 64.34 0 0 1  796.24 233.24 L 731.9 168.9 A 64.34 64.34 0 0 0 796.24 233.24" fill="#1c3b31"/><path d="M 812.33 233.24 A 64.34 64.34 0 0 1  876.6700000000001 168.9 L 812.33 233.24 A 64.34 64.34 0 0 0 876.6700000000001 168.9" fill="#cbdcd7"/><rect x="892.7571428571429" y="168.9" width="64.34285714285714" height="64.34285714285714" fill="#ffffff"/><path d="M 892.76 201.07 A 32.17 32.17 0 0 1  924.93 168.9 L 892.76 201.07 A 32.17 32.17 0 0 0 924.93 168.9" fill="#eef1f0"/><path d="M 924.93 201.07 A 32.17 32.17 0 0 1  957.0999999999999 168.9 L 924.93 201.07 A 32.17 32.17 0 0 0 957.0999999999999 168.9" fill="#5c9081"/><path d="M 924.93 201.07 A 32.17 32.17 0 0 1  957.0999999999999 233.24 L 924.93 201.07 A 32.17 32.17 0 0 0 957.0999999999999 233.24" fill="#b9e2d4"/><rect x="973.1857142857142" y="168.9" width="64.34285714285714" height="64.34285714285714" fill="#ffffff"/><path d="M 973.19 168.9 A 32.17 32.17 0 0 1  1005.36 201.07 L 973.19 168.9 A 32.17 32.17 0 0 0 1005.36 201.07" fill="#869791"/><path d="M 1005.36 168.9 A 32.17 32.17 0 0 1  1037.53 201.07 L 1005.36 168.9 A 32.17 32.17 0 0 0 1037.53 201.07" fill="#a9b5b1"/><path d="M 973.19 201.07 A 32.17 32.17 0 0 1  1005.36 233.24 L 973.19 201.07 A 32.17 32.17 0 0 0 1005.36 233.24" fill="#2d4a41"/><rect x="8.042857142857143" y="249.32857142857142" width="64.34285714285714" height="64.34285714285714" fill="#ffffff"/><path d="M 8.04 313.67 A 32.17 32.17 0 0 1  40.21 281.5 L 8.04 313.67 A 32.17 32.17 0 0 0 40.21 281.5" fill="#b2dfd0"/><path d="M 40.21 281.5 A 32.17 32.17 0 0 1  72.38 313.67 L 40.21 281.5 A 32.17 32.17 0 0 0 72.38 313.67" fill="#45806f"/><rect x="88.47142857142858" y="249.32857142857142" width="64.34285714285714" height="64.34285714285714" fill="#ffffff"/><path d="M 120.64 249.33 A 32.17 32.17 0 0 1  152.81 281.5 L 120.64 249.33 A 32.17 32.17 0 0 0 152.81 281.5" fill="#99a7a2"/><path d="M 120.64 313.67 A 32.17 32.17 0 0 1  152.81 281.5 L 120.64 313.67 A 32.17 32.17 0 0 0 152.81 281.5" fill="#cdd4d2"/><rect x="329.75714285714287" y="249.32857142857142" width="64.34285714285714" height="64.34285714285714" fill="#ffffff"/><path d="M 329.76 249.33 A 32.17 32.17 0 0 1  361.93 281.5 L 329.76 249.33 A 32.17 32.17 0 0 0 361.93 281.5" fill="#778a83"/><path d="M 361.93 281.5 A 32.17 32.17 0 0 1  394.1 249.33 L 361.93 281.5 A 32.17 32.17 0 0 0 394.1 249.33" fill="#4c8674"/><path d="M 329.76 313.67 A 32.17 32.17 0 0 1  361.93 281.5 L 329.76 313.67 A 32.17 32.17 0 0 0 361.93 281.5" fill="#7a8d87"/><path d="M 361.93 313.67 A 32.17 32.17 0 0 1  394.1 281.5 L 361.93 313.67 A 32.17 32.17 0 0 0 394.1 281.5" fill="#8db2a7"/><rect x="410.1857142857143" y="249.32857142857142" width="64.34285714285714" height="64.34285714285714" fill="#ffffff"/><path d="M 410.19 249.33 A 32.17 32.17 0 0 1  442.36 281.5 L 410.19 249.33 A 32.17 32.17 0 0 0 442.36 281.5" fill="#90b3a9"/><path d="M 410.19 281.5 A 32.17 32.17 0 0 1  442.36 313.67 L 410.19 281.5 A 32.17 32.17 0 0 0 442.36 313.67" fill="#c2cbc8"/><path d="M 490.61 313.67 A 64.34 64.34 0 0 1  554.95 249.33 L 490.61 313.67 A 64.34 64.34 0 0 0 554.95 249.33" fill="#a8dbc9"/><path d="M 571.04 249.33 A 64.34 64.34 0 0 1  635.38 313.67 L 571.04 249.33 A 64.34 64.34 0 0 0 635.38 313.67" fill="#a2afab"/><rect x="651.4714285714285" y="249.32857142857142" width="64.34285714285714" height="64.34285714285714" fill="#ffffff"/><path d="M 651.47 281.5 A 32.17 32.17 0 0 1  683.64 249.33 L 651.47 281.5 A 32.17 32.17 0 0 0 683.64 249.33" fill="#798b85"/><path d="M 683.64 281.5 A 32.17 32.17 0 0 1  715.81 249.33 L 683.64 281.5 A 32.17 32.17 0 0 0 715.81 249.33" fill="#a1d8c6"/><path d="M 651.47 281.5 A 32.17 32.17 0 0 1  683.64 313.67 L 651.47 281.5 A 32.17 32.17 0 0 0 683.64 313.67" fill="#c5d8d2"/><path d="M 683.64 281.5 A 32.17 32.17 0 0 1  715.81 313.67 L 683.64 281.5 A 32.17 32.17 0 0 0 715.81 313.67" fill="#d2ece4"/><path d="M 731.9 313.67 A 64.34 64.34 0 0 1  796.24 249.33 L 731.9 313.67 A 64.34 64.34 0 0 0 796.24 249.33" fill="#19392f"/><rect x="812.3285714285714" y="249.32857142857142" width="64.34285714285714" height="64.34285714285714" fill="#ffffff"/><path d="M 812.33 281.5 A 32.17 32.17 0 0 1  844.5 249.33 L 812.33 281.5 A 32.17 32.17 0 0 0 844.5 249.33" fill="#b3cbc4"/><path d="M 844.5 249.33 A 32.17 32.17 0 0 1  876.67 281.5 L 844.5 249.33 A 32.17 32.17 0 0 0 876.67 281.5" fill="#eef1f0"/><path d="M 844.5 281.5 A 32.17 32.17 0 0 1  876.67 313.67 L 844.5 281.5 A 32.17 32.17 0 0 0 876.67 313.67" fill="#f1f9f7"/><path d="M 973.19 249.33 A 64.34 64.34 0 0 1  1037.53 313.67 L 973.19 249.33 A 64.34 64.34 0 0 0 1037.53 313.67" fill="#377764"/><path d="M 1053.61 313.67 A 64.34 64.34 0 0 1  1117.9499999999998 249.33 L 1053.61 313.67 A 64.34 64.34 0 0 0 1117.9499999999998 249.33" fill="#738780"/><rect x="8.042857142857143" y="329.75714285714287" width="64.34285714285714" height="64.34285714285714" fill="#ffffff"/><path d="M 40.21 329.76 A 32.17 32.17 0 0 1  72.38 361.93 L 40.21 329.76 A 32.17 32.17 0 0 0 72.38 361.93" fill="#dfe4e2"/><path d="M 8.04 361.93 A 32.17 32.17 0 0 1  40.21 394.1 L 8.04 361.93 A 32.17 32.17 0 0 0 40.21 394.1" fill="#b6e0d2"/><path d="M 40.21 361.93 A 32.17 32.17 0 0 1  72.38 394.1 L 40.21 361.93 A 32.17 32.17 0 0 0 72.38 394.1" fill="#c5cdca"/><rect x="168.9" y="329.75714285714287" width="64.34285714285714" height="64.34285714285714" fill="#ffffff"/><path d="M 168.9 329.76 A 32.17 32.17 0 0 1  201.07 361.93 L 168.9 329.76 A 32.17 32.17 0 0 0 201.07 361.93" fill="#e4e7e6"/><path d="M 201.07 329.76 A 32.17 32.17 0 0 1  233.24 361.93 L 201.07 329.76 A 32.17 32.17 0 0 0 233.24 361.93" fill="#d6eee6"/><path d="M 168.9 394.1 A 32.17 32.17 0 0 1  201.07 361.93 L 168.9 394.1 A 32.17 32.17 0 0 0 201.07 361.93" fill="#ceeae1"/><path d="M 249.33 394.1 A 64.34 64.34 0 0 1  313.67 329.76 L 249.33 394.1 A 64.34 64.34 0 0 0 313.67 329.76" fill="#598e7e"/><rect x="571.0428571428571" y="329.75714285714287" width="64.34285714285714" height="64.34285714285714" fill="#ffffff"/><path d="M 571.04 361.93 A 32.17 32.17 0 0 1  603.2099999999999 329.76 L 571.04 361.93 A 32.17 32.17 0 0 0 603.2099999999999 329.76" fill="#3f5a51"/><path d="M 651.47 329.76 A 64.34 64.34 0 0 1  715.8100000000001 394.1 L 651.47 329.76 A 64.34 64.34 0 0 0 715.8100000000001 394.1" fill="#6c9b8d"/><rect x="731.9" y="329.75714285714287" width="64.34285714285714" height="64.34285714285714" fill="#ffffff"/><path d="M 731.9 329.76 A 32.17 32.17 0 0 1  764.0699999999999 361.93 L 731.9 329.76 A 32.17 32.17 0 0 0 764.0699999999999 361.93" fill="#7ea79b"/><path d="M 764.07 329.76 A 32.17 32.17 0 0 1  796.24 361.93 L 764.07 329.76 A 32.17 32.17 0 0 0 796.24 361.93" fill="#bde4d7"/><path d="M 731.9 361.93 A 32.17 32.17 0 0 1  764.0699999999999 394.1 L 731.9 361.93 A 32.17 32.17 0 0 0 764.0699999999999 394.1" fill="#c5e7db"/><path d="M 764.07 361.93 A 32.17 32.17 0 0 1  796.24 394.1 L 764.07 361.93 A 32.17 32.17 0 0 0 796.24 394.1" fill="#296d59"/><rect x="892.7571428571429" y="329.75714285714287" width="64.34285714285714" height="64.34285714285714" fill="#ffffff"/><path d="M 892.76 329.76 A 32.17 32.17 0 0 1  924.93 361.93 L 892.76 329.76 A 32.17 32.17 0 0 0 924.93 361.93" fill="#18382e"/><path d="M 892.76 361.93 A 32.17 32.17 0 0 1  924.93 394.1 L 892.76 361.93 A 32.17 32.17 0 0 0 924.93 394.1" fill="#e7eae9"/><path d="M 924.93 394.1 A 32.17 32.17 0 0 1  957.0999999999999 361.93 L 924.93 394.1 A 32.17 32.17 0 0 0 957.0999999999999 361.93" fill="#aadccb"/><rect x="973.1857142857142" y="329.75714285714287" width="64.34285714285714" height="64.34285714285714" fill="#ffffff"/><path d="M 1005.36 361.93 A 32.17 32.17 0 0 1  1037.53 329.76 L 1005.36 361.93 A 32.17 32.17 0 0 0 1037.53 329.76" fill="#0e3025"/><path d="M 973.19 394.1 A 32.17 32.17 0 0 1  1005.36 361.93 L 973.19 394.1 A 32.17 32.17 0 0 0 1005.36 361.93" fill="#ecefee"/><path d="M 1053.61 394.1 A 64.34 64.34 0 0 1  1117.9499999999998 329.76 L 1053.61 394.1 A 64.34 64.34 0 0 0 1117.9499999999998 329.76" fill="#337461"/><path d="M 8.04 474.53 A 64.34 64.34 0 0 1  72.38 410.19 L 8.04 474.53 A 64.34 64.34 0 0 0 72.38 410.19" fill="#c6d8d3"/><path d="M 168.9 474.53 A 64.34 64.34 0 0 1  233.24 410.19 L 168.9 474.53 A 64.34 64.34 0 0 0 233.24 410.19" fill="#cbd3d0"/><rect x="410.1857142857143" y="410.1857142857143" width="64.34285714285714" height="64.34285714285714" fill="#ffffff"/><path d="M 410.19 442.36 A 32.17 32.17 0 0 1  442.36 410.19 L 410.19 442.36 A 32.17 32.17 0 0 0 442.36 410.19" fill="#224137"/><path d="M 442.36 442.36 A 32.17 32.17 0 0 1  474.53000000000003 410.19 L 442.36 442.36 A 32.17 32.17 0 0 0 474.53000000000003 410.19" fill="#e9f6f1"/><path d="M 410.19 442.36 A 32.17 32.17 0 0 1  442.36 474.53000000000003 L 410.19 442.36 A 32.17 32.17 0 0 0 442.36 474.53000000000003" fill="#95b7ad"/><path d="M 442.36 442.36 A 32.17 32.17 0 0 1  474.53000000000003 474.53000000000003 L 442.36 442.36 A 32.17 32.17 0 0 0 474.53000000000003 474.53000000000003" fill="#619485"/><path d="M 490.61 410.19 A 64.34 64.34 0 0 1  554.95 474.53 L 490.61 410.19 A 64.34 64.34 0 0 0 554.95 474.53" fill="#bde4d7"/><rect x="571.0428571428571" y="410.1857142857143" width="64.34285714285714" height="64.34285714285714" fill="#ffffff"/><path d="M 571.04 442.36 A 32.17 32.17 0 0 1  603.2099999999999 410.19 L 571.04 442.36 A 32.17 32.17 0 0 0 603.2099999999999 410.19" fill="#6a7e78"/><path d="M 603.21 442.36 A 32.17 32.17 0 0 1  635.38 410.19 L 603.21 442.36 A 32.17 32.17 0 0 0 635.38 410.19" fill="#7ca699"/><path d="M 571.04 442.36 A 32.17 32.17 0 0 1  603.2099999999999 474.53000000000003 L 571.04 442.36 A 32.17 32.17 0 0 0 603.2099999999999 474.53000000000003" fill="#e5e9e8"/><path d="M 603.21 442.36 A 32.17 32.17 0 0 1  635.38 474.53000000000003 L 603.21 442.36 A 32.17 32.17 0 0 0 635.38 474.53000000000003" fill="#f5f7f6"/><rect x="651.4714285714285" y="410.1857142857143" width="64.34285714285714" height="64.34285714285714" fill="#ffffff"/><path d="M 651.47 442.36 A 32.17 32.17 0 0 1  683.64 410.19 L 651.47 442.36 A 32.17 32.17 0 0 0 683.64 410.19" fill="#8fb3a8"/><path d="M 651.47 474.53000000000003 A 32.17 32.17 0 0 1  683.64 442.36 L 651.47 474.53000000000003 A 32.17 32.17 0 0 0 683.64 442.36" fill="#e6e9e8"/><path d="M 683.64 474.53000000000003 A 32.17 32.17 0 0 1  715.81 442.36 L 683.64 474.53000000000003 A 32.17 32.17 0 0 0 715.81 442.36" fill="#f8fcfb"/><rect x="731.9" y="410.1857142857143" width="64.34285714285714" height="64.34285714285714" fill="#ffffff"/><path d="M 731.9 442.36 A 32.17 32.17 0 0 1  764.0699999999999 410.19 L 731.9 442.36 A 32.17 32.17 0 0 0 764.0699999999999 410.19" fill="#345047"/><path d="M 731.9 442.36 A 32.17 32.17 0 0 1  764.0699999999999 474.53000000000003 L 731.9 442.36 A 32.17 32.17 0 0 0 764.0699999999999 474.53000000000003" fill="#f8f9f8"/><path d="M 764.07 474.53000000000003 A 32.17 32.17 0 0 1  796.24 442.36 L 764.07 474.53000000000003 A 32.17 32.17 0 0 0 796.24 442.36" fill="#38544b"/><path d="M 812.33 410.19 A 64.34 64.34 0 0 1  876.6700000000001 474.53 L 812.33 410.19 A 64.34 64.34 0 0 0 876.6700000000001 474.53" fill="#9ba9a5"/><path d="M 973.19 410.19 A 64.34 64.34 0 0 1  1037.53 474.53 L 973.19 410.19 A 64.34 64.34 0 0 0 1037.53 474.53" fill="#72857f"/><path d="M 1053.61 410.19 A 64.34 64.34 0 0 1  1117.9499999999998 474.53 L 1053.61 410.19 A 64.34 64.34 0 0 0 1117.9499999999998 474.53" fill="#38544b"/><path d="M 8.04 490.61 A 64.34 64.34 0 0 1  72.38 554.95 L 8.04 490.61 A 64.34 64.34 0 0 0 72.38 554.95" fill="#72857f"/><path d="M 168.9 554.95 A 64.34 64.34 0 0 1  233.24 490.61 L 168.9 554.95 A 64.34 64.34 0 0 0 233.24 490.61" fill="#679789"/><path d="M 249.33 554.95 A 64.34 64.34 0 0 1  313.67 490.61 L 249.33 554.95 A 64.34 64.34 0 0 0 313.67 490.61" fill="#d2ece3"/><path d="M 490.61 554.95 A 64.34 64.34 0 0 1  554.95 490.61 L 490.61 554.95 A 64.34 64.34 0 0 0 554.95 490.61" fill="#e8efed"/><rect x="571.0428571428571" y="490.6142857142857" width="64.34285714285714" height="64.34285714285714" fill="#ffffff"/><path d="M 571.04 522.78 A 32.17 32.17 0 0 1  603.2099999999999 490.61 L 571.04 522.78 A 32.17 32.17 0 0 0 603.2099999999999 490.61" fill="#eef3f2"/><path d="M 571.04 522.79 A 32.17 32.17 0 0 1  603.2099999999999 554.9599999999999 L 571.04 522.79 A 32.17 32.17 0 0 0 603.2099999999999 554.9599999999999" fill="#c2d5d0"/><path d="M 603.21 522.79 A 32.17 32.17 0 0 1  635.38 554.9599999999999 L 603.21 522.79 A 32.17 32.17 0 0 0 635.38 554.9599999999999" fill="#c6e7dc"/><path d="M 651.47 554.95 A 64.34 64.34 0 0 1  715.8100000000001 490.61 L 651.47 554.95 A 64.34 64.34 0 0 0 715.8100000000001 490.61" fill="#c7e8dc"/><rect x="731.9" y="490.6142857142857" width="64.34285714285714" height="64.34285714285714" fill="#ffffff"/><path d="M 731.9 522.78 A 32.17 32.17 0 0 1  764.0699999999999 490.61 L 731.9 522.78 A 32.17 32.17 0 0 0 764.0699999999999 490.61" fill="#c9e9de"/><path d="M 764.07 522.78 A 32.17 32.17 0 0 1  796.24 490.61 L 764.07 522.78 A 32.17 32.17 0 0 0 796.24 490.61" fill="#f1f5f4"/><path d="M 731.9 522.79 A 32.17 32.17 0 0 1  764.0699999999999 554.9599999999999 L 731.9 522.79 A 32.17 32.17 0 0 0 764.0699999999999 554.9599999999999" fill="#d6eee6"/><path d="M 764.07 522.79 A 32.17 32.17 0 0 1  796.24 554.9599999999999 L 764.07 522.79 A 32.17 32.17 0 0 0 796.24 554.9599999999999" fill="#619485"/><rect x="812.3285714285714" y="490.6142857142857" width="64.34285714285714" height="64.34285714285714" fill="#ffffff"/><path d="M 812.33 554.9599999999999 A 32.17 32.17 0 0 1  844.5 522.79 L 812.33 554.9599999999999 A 32.17 32.17 0 0 0 844.5 522.79" fill="#dcf0ea"/><path d="M 844.5 554.9599999999999 A 32.17 32.17 0 0 1  876.67 522.79 L 844.5 554.9599999999999 A 32.17 32.17 0 0 0 876.67 522.79" fill="#adddcc"/><rect x="892.7571428571429" y="490.6142857142857" width="64.34285714285714" height="64.34285714285714" fill="#ffffff"/><path d="M 892.76 490.61 A 32.17 32.17 0 0 1  924.93 522.78 L 892.76 490.61 A 32.17 32.17 0 0 0 924.93 522.78" fill="#a2c0b7"/><path d="M 924.93 490.61 A 32.17 32.17 0 0 1  957.0999999999999 522.78 L 924.93 490.61 A 32.17 32.17 0 0 0 957.0999999999999 522.78" fill="#bed3cd"/><path d="M 924.93 522.79 A 32.17 32.17 0 0 1  957.0999999999999 554.9599999999999 L 924.93 522.79 A 32.17 32.17 0 0 0 957.0999999999999 554.9599999999999" fill="#407d6b"/><rect x="1053.6142857142859" y="490.6142857142857" width="64.34285714285714" height="64.34285714285714" fill="#ffffff"/><path d="M 1053.61 490.61 A 32.17 32.17 0 0 1  1085.78 522.78 L 1053.61 490.61 A 32.17 32.17 0 0 0 1085.78 522.78" fill="#bae2d5"/><path d="M 1085.79 522.78 A 32.17 32.17 0 0 1  1117.96 490.61 L 1085.79 522.78 A 32.17 32.17 0 0 0 1117.96 490.61" fill="#588e7e"/><path d="M 1053.61 554.9599999999999 A 32.17 32.17 0 0 1  1085.78 522.79 L 1053.61 554.9599999999999 A 32.17 32.17 0 0 0 1085.78 522.79" fill="#fdfdfd"/><path d="M 1085.79 554.9599999999999 A 32.17 32.17 0 0 1  1117.96 522.79 L 1085.79 554.9599999999999 A 32.17 32.17 0 0 0 1117.96 522.79" fill="#80928c"/></g></svg>