<?xml version="1.0" standalone="no"?><svg xmlns:xlink="http://www.w3.org/1999/xlink" xmlns="http://www.w3.org/2000/svg" viewBox="0 0 1000 555.5607237545933" preserveAspectRatio="xMaxYMax slice"><g transform="scale(0.930275826782641)"><rect x="0" y="0" width="1074.96" height="597.2" fill="#000000"/><rect x="179.16000000000003" y="0" width="59.720000000000006" height="59.720000000000006" fill="#000000"/><path d="M 179.16 0 A 29.86 29.86 0 0 1  209.01999999999998 29.86 L 179.16 0 A 29.86 29.86 0 0 0 209.01999999999998 29.86" fill="#0a281f"/><rect x="418.04" y="0" width="59.720000000000006" height="59.720000000000006" fill="#000000"/><path d="M 447.9 29.86 A 29.86 29.86 0 0 1  477.76 0 L 447.9 29.86 A 29.86 29.86 0 0 0 477.76 0" fill="#64877b"/><path d="M 477.76 0 A 59.72 59.72 0 0 1  537.48 59.72 L 477.76 0 A 59.72 59.72 0 0 0 537.48 59.72" fill="#082019"/><rect x="597.2" y="0" width="59.720000000000006" height="59.720000000000006" fill="#000000"/><path d="M 716.64 0 A 59.72 59.72 0 0 1  776.36 59.72 L 716.64 0 A 59.72 59.72 0 0 0 776.36 59.72" fill="#030a08"/><path d="M 776.36 0 A 59.72 59.72 0 0 1  836.08 59.72 L 776.36 0 A 59.72 59.72 0 0 0 836.08 59.72" fill="#8fc1b0"/><rect x="895.8000000000001" y="0" width="59.720000000000006" height="59.720000000000006" fill="#000000"/><path d="M 895.8 29.86 A 29.86 29.86 0 0 1  925.66 0 L 895.8 29.86 A 29.86 29.86 0 0 0 925.66 0" fill="#081712"/><path d="M 895.8 29.86 A 29.86 29.86 0 0 1  925.66 59.72 L 895.8 29.86 A 29.86 29.86 0 0 0 925.66 59.72" fill="#092119"/><rect x="955.5200000000001" y="0" width="59.720000000000006" height="59.720000000000006" fill="#000000"/><path d="M 985.38 29.86 A 29.86 29.86 0 0 1  1015.24 0 L 985.38 29.86 A 29.86 29.86 0 0 0 1015.24 0" fill="#071b15"/><path d="M 59.72 119.44 A 59.72 59.72 0 0 1  119.44 59.72 L 59.72 119.44 A 59.72 59.72 0 0 0 119.44 59.72" fill="#0a2920"/><rect x="537.48" y="59.720000000000006" width="59.720000000000006" height="59.720000000000006" fill="#000000"/><path d="M 567.34 89.58 A 29.86 29.86 0 0 1  597.2 59.72 L 567.34 89.58 A 29.86 29.86 0 0 0 597.2 59.72" fill="#09221a"/><rect x="597.2" y="59.720000000000006" width="59.720000000000006" height="59.720000000000006" fill="#000000"/><path d="M 597.2 89.58 A 29.86 29.86 0 0 1  627.0600000000001 119.44 L 597.2 89.58 A 29.86 29.86 0 0 0 627.0600000000001 119.44" fill="#4f6a61"/><rect x="836.08" y="59.720000000000006" width="59.720000000000006" height="59.720000000000006" fill="#000000"/><path d="M 865.94 89.58 A 29.86 29.86 0 0 1  895.8000000000001 59.72 L 865.94 89.58 A 29.86 29.86 0 0 0 895.8000000000001 59.72" fill="#010302"/><rect x="1015.2400000000001" y="59.720000000000006" width="59.720000000000006" height="59.720000000000006" fill="#000000"/><rect x="0" y="119.44000000000001" width="59.720000000000006" height="59.720000000000006" fill="#000000"/><path d="M 29.86 119.44 A 29.86 29.86 0 0 1  59.72 149.3 L 29.86 119.44 A 29.86 29.86 0 0 0 59.72 149.3" fill="#000000"/><path d="M 0 149.3 A 29.86 29.86 0 0 1  29.86 179.16000000000003 L 0 149.3 A 29.86 29.86 0 0 0 29.86 179.16000000000003" fill="#40564f"/><rect x="119.44000000000001" y="119.44000000000001" width="59.720000000000006" height="59.720000000000006" fill="#000000"/><path d="M 149.3 149.3 A 29.86 29.86 0 0 1  179.16000000000003 179.16000000000003 L 149.3 149.3 A 29.86 29.86 0 0 0 179.16000000000003 179.16000000000003" fill="#092119"/><path d="M 238.88 179.16 A 59.72 59.72 0 0 1  298.6 119.44 L 238.88 179.16 A 59.72 59.72 0 0 0 298.6 119.44" fill="#0b2b22"/><rect x="537.48" y="119.44000000000001" width="59.720000000000006" height="59.720000000000006" fill="#000000"/><path d="M 537.48 149.3 A 29.86 29.86 0 0 1  567.34 179.16000000000003 L 537.48 149.3 A 29.86 29.86 0 0 0 567.34 179.16000000000003" fill="#27735a"/><rect x="597.2" y="119.44000000000001" width="59.720000000000006" height="59.720000000000006" fill="#000000"/><path d="M 597.2 119.44 A 29.86 29.86 0 0 1  627.0600000000001 149.3 L 597.2 119.44 A 29.86 29.86 0 0 0 627.0600000000001 149.3" fill="#0a271e"/><path d="M 627.06 119.44 A 29.86 29.86 0 0 1  656.92 149.3 L 627.06 119.44 A 29.86 29.86 0 0 0 656.92 149.3" fill="#0a261d"/><rect x="656.9200000000001" y="119.44000000000001" width="59.720000000000006" height="59.720000000000006" fill="#000000"/><path d="M 686.78 149.3 A 29.86 29.86 0 0 1  716.64 119.44 L 686.78 149.3 A 29.86 29.86 0 0 0 716.64 119.44" fill="#010202"/><path d="M 656.92 149.3 A 29.86 29.86 0 0 1  686.78 179.16000000000003 L 656.92 149.3 A 29.86 29.86 0 0 0 686.78 179.16000000000003" fill="#061611"/><path d="M 1015.24 179.16 A 59.72 59.72 0 0 1  1074.96 119.44 L 1015.24 179.16 A 59.72 59.72 0 0 0 1074.96 119.44" fill="#061812"/><path d="M 0 238.88 A 59.72 59.72 0 0 1  59.72 179.16 L 0 238.88 A 59.72 59.72 0 0 0 59.72 179.16" fill="#0d3328"/><path d="M 418.04 238.88 A 59.72 59.72 0 0 1  477.76 179.16 L 418.04 238.88 A 59.72 59.72 0 0 0 477.76 179.16" fill="#49635a"/><path d="M 477.76 238.88 A 59.72 59.72 0 0 1  537.48 179.16 L 477.76 238.88 A 59.72 59.72 0 0 0 537.48 179.16" fill="#4a645b"/><rect x="656.9200000000001" y="179.16000000000003" width="59.720000000000006" height="59.720000000000006" fill="#000000"/><path d="M 716.64 238.88 A 59.72 59.72 0 0 1  776.36 179.16 L 716.64 238.88 A 59.72 59.72 0 0 0 776.36 179.16" fill="#0b2d23"/><path d="M 0 298.6 A 59.72 59.72 0 0 1  59.72 238.88 L 0 298.6 A 59.72 59.72 0 0 0 59.72 238.88" fill="#020705"/><path d="M 119.44 238.88 A 59.72 59.72 0 0 1  179.16 298.6 L 119.44 238.88 A 59.72 59.72 0 0 0 179.16 298.6" fill="#0f3e30"/><path d="M 656.92 298.6 A 59.72 59.72 0 0 1  716.64 238.88 L 656.92 298.6 A 59.72 59.72 0 0 0 716.64 238.88" fill="#516e64"/><path d="M 716.64 298.6 A 59.72 59.72 0 0 1  776.36 238.88 L 716.64 298.6 A 59.72 59.72 0 0 0 776.36 238.88" fill="#80ad9d"/><path d="M 0 358.32000000000005 A 59.72 59.72 0 0 1  59.72 298.6 L 0 358.32000000000005 A 59.72 59.72 0 0 0 59.72 298.6" fill="#040a08"/><rect x="59.720000000000006" y="298.6" width="59.720000000000006" height="59.720000000000006" fill="#000000"/><path d="M 59.72 328.46000000000004 A 29.86 29.86 0 0 1  89.58 298.6 L 59.72 328.46000000000004 A 29.86 29.86 0 0 0 89.58 298.6" fill="#082019"/><path d="M 89.58 358.32 A 29.86 29.86 0 0 1  119.44 328.46 L 89.58 358.32 A 29.86 29.86 0 0 0 119.44 328.46" fill="#113126"/><rect x="179.16000000000003" y="298.6" width="59.720000000000006" height="59.720000000000006" fill="#000000"/><path d="M 209.02 328.46000000000004 A 29.86 29.86 0 0 1  238.88 298.6 L 209.02 328.46000000000004 A 29.86 29.86 0 0 0 238.88 298.6" fill="#2b7d62"/><path d="M 179.16 328.46 A 29.86 29.86 0 0 1  209.01999999999998 358.32 L 179.16 328.46 A 29.86 29.86 0 0 0 209.01999999999998 358.32" fill="#28735a"/><path d="M 209.02 328.46 A 29.86 29.86 0 0 1  238.88 358.32 L 209.02 328.46 A 29.86 29.86 0 0 0 238.88 358.32" fill="#092119"/><path d="M 477.76 358.32000000000005 A 59.72 59.72 0 0 1  537.48 298.6 L 477.76 358.32000000000005 A 59.72 59.72 0 0 0 537.48 298.6" fill="#0a281f"/><rect x="776.3600000000001" y="298.6" width="59.720000000000006" height="59.720000000000006" fill="#000000"/><path d="M 806.22 298.6 A 29.86 29.86 0 0 1  836.08 328.46000000000004 L 806.22 298.6 A 29.86 29.86 0 0 0 836.08 328.46000000000004" fill="#081d16"/><path d="M 836.08 298.6 A 59.72 59.72 0 0 1  895.8000000000001 358.32000000000005 L 836.08 298.6 A 59.72 59.72 0 0 0 895.8000000000001 358.32000000000005" fill="#267058"/><rect x="477.76000000000005" y="358.32000000000005" width="59.720000000000006" height="59.720000000000006" fill="#000000"/><path d="M 477.76 418.04 A 29.86 29.86 0 0 1  507.62 388.18 L 477.76 418.04 A 29.86 29.86 0 0 0 507.62 388.18" fill="#0a241c"/><path d="M 507.62 388.18 A 29.86 29.86 0 0 1  537.48 418.04 L 507.62 388.18 A 29.86 29.86 0 0 0 537.48 418.04" fill="#05130e"/><rect x="537.48" y="358.32000000000005" width="59.720000000000006" height="59.720000000000006" fill="#000000"/><path d="M 537.48 388.18 A 29.86 29.86 0 0 1  567.34 358.32 L 537.48 388.18 A 29.86 29.86 0 0 0 567.34 358.32" fill="#061812"/><path d="M 567.34 358.32 A 29.86 29.86 0 0 1  597.2 388.18 L 567.34 358.32 A 29.86 29.86 0 0 0 597.2 388.18" fill="#2d8266"/><path d="M 537.48 418.04 A 29.86 29.86 0 0 1  567.34 388.18 L 537.48 418.04 A 29.86 29.86 0 0 0 567.34 388.18" fill="#526e65"/><rect x="597.2" y="358.32000000000005" width="59.720000000000006" height="59.720000000000006" fill="#000000"/><path d="M 597.2 388.18 A 29.86 29.86 0 0 1  627.0600000000001 418.04 L 597.2 388.18 A 29.86 29.86 0 0 0 627.0600000000001 418.04" fill="#09251d"/><path d="M 656.92 418.03999999999996 A 59.72 59.72 0 0 1  716.64 358.32 L 656.92 418.03999999999996 A 59.72 59.72 0 0 0 716.64 358.32" fill="#1f5946"/><rect x="836.08" y="358.32000000000005" width="59.720000000000006" height="59.720000000000006" fill="#000000"/><path d="M 955.52 418.03999999999996 A 59.72 59.72 0 0 1  1015.24 358.32 L 955.52 418.03999999999996 A 59.72 59.72 0 0 0 1015.24 358.32" fill="#030b08"/><path d="M 0 418.04 A 59.72 59.72 0 0 1  59.72 477.76 L 0 418.04 A 59.72 59.72 0 0 0 59.72 477.76" fill="#12362a"/><rect x="238.88000000000002" y="418.04" width="59.720000000000006" height="59.720000000000006" fill="#000000"/><path d="M 418.04 477.76 A 59.72 59.72 0 0 1  477.76 418.04 L 418.04 477.76 A 59.72 59.72 0 0 0 477.76 418.04" fill="#277158"/><path d="M 477.76 418.04 A 59.72 59.72 0 0 1  537.48 477.76 L 477.76 418.04 A 59.72 59.72 0 0 0 537.48 477.76" fill="#030d0a"/><path d="M 597.2 477.76 A 59.72 59.72 0 0 1  656.9200000000001 418.04 L 597.2 477.76 A 59.72 59.72 0 0 0 656.9200000000001 418.04" fill="#092119"/><path d="M 656.92 477.76 A 59.72 59.72 0 0 1  716.64 418.04 L 656.92 477.76 A 59.72 59.72 0 0 0 716.64 418.04" fill="#071e17"/><rect x="716.6400000000001" y="418.04" width="59.720000000000006" height="59.720000000000006" fill="#000000"/><path d="M 746.5 447.90000000000003 A 29.86 29.86 0 0 1  776.36 418.04 L 746.5 447.90000000000003 A 29.86 29.86 0 0 0 776.36 418.04" fill="#071a14"/><path d="M 746.5 477.76 A 29.86 29.86 0 0 1  776.36 447.9 L 746.5 477.76 A 29.86 29.86 0 0 0 776.36 447.9" fill="#030806"/><rect x="776.3600000000001" y="418.04" width="59.720000000000006" height="59.720000000000006" fill="#000000"/><path d="M 776.36 418.04 A 29.86 29.86 0 0 1  806.22 447.90000000000003 L 776.36 418.04 A 29.86 29.86 0 0 0 806.22 447.90000000000003" fill="#030d0a"/><path d="M 776.36 477.76 A 29.86 29.86 0 0 1  806.22 447.9 L 776.36 477.76 A 29.86 29.86 0 0 0 806.22 447.9" fill="#061812"/><path d="M 836.08 477.76 A 59.72 59.72 0 0 1  895.8000000000001 418.04 L 836.08 477.76 A 59.72 59.72 0 0 0 895.8000000000001 418.04" fill="#1c2522"/><rect x="0" y="477.76000000000005" width="59.720000000000006" height="59.720000000000006" fill="#000000"/><path d="M 59.72 477.76 A 59.72 59.72 0 0 1  119.44 537.48 L 59.72 477.76 A 59.72 59.72 0 0 0 119.44 537.48" fill="#1c5341"/><rect x="358.32000000000005" y="477.76000000000005" width="59.720000000000006" height="59.720000000000006" fill="#000000"/><path d="M 388.18 477.76 A 29.86 29.86 0 0 1  418.04 507.62 L 388.18 477.76 A 29.86 29.86 0 0 0 418.04 507.62" fill="#010403"/><rect x="597.2" y="477.76000000000005" width="59.720000000000006" height="59.720000000000006" fill="#000000"/><path d="M 597.2 507.62 A 29.86 29.86 0 0 1  627.0600000000001 477.76 L 597.2 507.62 A 29.86 29.86 0 0 0 627.0600000000001 477.76" fill="#1f5a47"/><path d="M 627.06 477.76 A 29.86 29.86 0 0 1  656.92 507.62 L 627.06 477.76 A 29.86 29.86 0 0 0 656.92 507.62" fill="#061712"/><path d="M 627.06 537.48 A 29.86 29.86 0 0 1  656.92 507.62 L 627.06 537.48 A 29.86 29.86 0 0 0 656.92 507.62" fill="#08211a"/><path d="M 776.36 537.48 A 59.72 59.72 0 0 1  836.08 477.76 L 776.36 537.48 A 59.72 59.72 0 0 0 836.08 477.76" fill="#1f2a27"/><rect x="895.8000000000001" y="477.76000000000005" width="59.720000000000006" height="59.720000000000006" fill="#000000"/><path d="M 895.8 507.62 A 29.86 29.86 0 0 1  925.66 537.48 L 895.8 507.62 A 29.86 29.86 0 0 0 925.66 537.48" fill="#4b655c"/><path d="M 925.66 507.62 A 29.86 29.86 0 0 1  955.52 537.48 L 925.66 507.62 A 29.86 29.86 0 0 0 955.52 537.48" fill="#445b53"/><rect x="955.5200000000001" y="477.76000000000005" width="59.720000000000006" height="59.720000000000006" fill="#000000"/><path d="M 985.38 477.76 A 29.86 29.86 0 0 1  1015.24 507.62 L 985.38 477.76 A 29.86 29.86 0 0 0 1015.24 507.62" fill="#18614b"/><path d="M 1015.24 477.76 A 59.72 59.72 0 0 1  1074.96 537.48 L 1015.24 477.76 A 59.72 59.72 0 0 0 1074.96 537.48" fill="#0b2a20"/><rect x="59.720000000000006" y="537.48" width="59.720000000000006" height="59.720000000000006" fill="#000000"/><path d="M 89.58 537.48 A 29.86 29.86 0 0 1  119.44 567.34 L 89.58 537.48 A 29.86 29.86 0 0 0 119.44 567.34" fill="#0a261d"/><path d="M 89.58 597.2 A 29.86 29.86 0 0 1  119.44 567.34 L 89.58 597.2 A 29.86 29.86 0 0 0 119.44 567.34" fill="#09221a"/><path d="M 298.6 537.48 A 59.72 59.72 0 0 1  358.32000000000005 597.2 L 298.6 537.48 A 59.72 59.72 0 0 0 358.32000000000005 597.2" fill="#236750"/><rect x="358.32000000000005" y="537.48" width="59.720000000000006" height="59.720000000000006" fill="#000000"/><path d="M 358.32 537.48 A 29.86 29.86 0 0 1  388.18 567.34 L 358.32 537.48 A 29.86 29.86 0 0 0 388.18 567.34" fill="#051510"/><path d="M 388.18 597.2 A 29.86 29.86 0 0 1  418.04 567.34 L 388.18 597.2 A 29.86 29.86 0 0 0 418.04 567.34" fill="#0b211a"/><rect x="418.04" y="537.48" width="59.720000000000006" height="59.720000000000006" fill="#000000"/><path d="M 418.04 537.48 A 29.86 29.86 0 0 1  447.90000000000003 567.34 L 418.04 537.48 A 29.86 29.86 0 0 0 447.90000000000003 567.34" fill="#0b2c21"/><path d="M 418.04 567.34 A 29.86 29.86 0 0 1  447.90000000000003 597.2 L 418.04 567.34 A 29.86 29.86 0 0 0 447.90000000000003 597.2" fill="#8ec1b0"/><path d="M 447.9 597.2 A 29.86 29.86 0 0 1  477.76 567.34 L 447.9 597.2 A 29.86 29.86 0 0 0 477.76 567.34" fill="#04100c"/><path d="M 776.36 597.2 A 59.72 59.72 0 0 1  836.08 537.48 L 776.36 597.2 A 59.72 59.72 0 0 0 836.08 537.48" fill="#0f3f31"/></g></svg>